<svg xmlns="http://www.w3.org/2000/svg" viewBox="0 0 16 16"><path d="M8,0c-4.41113,0 -8,3.58887 -8,8c0,4.41113 3.58887,8 8,8c4.41113,0 8,-3.58887 8,-8c0,-4.41113 -3.58887,-8 -8,-8Zm-6,8c0,-3.30859 2.69141,-6 6,-6c3.30859,0 6,2.69141 6,6c0,0.605347 -0.09198,1.18921 -0.25946,1.74054l-3.74054,-3.74054l-6.24072,6.24072c-1.08643,-1.08643 -1.75928,-2.58643 -1.75928,-4.24072Z"/><path d="M2.70711,0.585786c0.585786,0.585786 0.585786,1.53553 0,2.12132c-0.585786,0.585786 -1.53553,0.585786 -2.12132,0c-0.585786,-0.585786 -0.585786,-1.53553 0,-2.12132c0.585786,-0.585786 1.53553,-0.585786 2.12132,0" transform="translate(3.854 4.354)"/></svg>